<?xml version="1.0" standalone="no"?>
<!DOCTYPE svg PUBLIC "-//W3C//DTD SVG 20010904//EN"
 "http://www.w3.org/TR/2001/REC-SVG-20010904/DTD/svg10.dtd">
<svg version="1.0" xmlns="http://www.w3.org/2000/svg"
 width="200.000000pt" height="200.000000pt" viewBox="0 0 200.000000 200.000000"
 preserveAspectRatio="xMidYMid meet">

<g transform="translate(0.000000,200.000000) scale(0.100000,-0.100000)"
fill="#000000" stroke="none">
<path d="M0 1000 l0 -1000 1000 0 1000 0 0 1000 0 1000 -1000 0 -1000 0 0
-1000z m867 395 c73 -31 113 -93 113 -172 -1 -94 -49 -159 -137 -182 -141 -38
-271 106 -219 243 39 102 146 151 243 111z m-397 -17 c107 -54 130 -194 47
-281 -39 -42 -88 -57 -189 -57 l-78 0 0 180 0 180 88 0 c71 0 96 -4 132 -22z
m731 -79 c23 -55 46 -102 50 -104 3 -3 26 41 51 98 l44 102 41 3 c41 3 42 3
49 -35 3 -21 19 -100 34 -175 15 -76 25 -140 22 -143 -3 -3 -20 -5 -38 -5 -37
0 -38 4 -64 135 -7 33 -15 66 -19 73 -5 8 -27 -30 -59 -98 -28 -60 -55 -110
-60 -110 -6 0 -32 50 -58 110 -27 61 -52 110 -55 110 -3 0 -16 -49 -29 -110
l-23 -110 -39 0 c-21 0 -38 3 -38 8 0 9 61 322 66 340 2 7 20 12 43 12 l39 0
43 -101z m-353 -366 c18 -9 46 -34 60 -56 22 -34 27 -52 27 -106 0 -78 -20
-118 -79 -159 -32 -22 -50 -27 -101 -27 -51 0 -69 5 -104 28 -129 86 -97 301
50 337 43 11 103 4 147 -17z m419 -4 c34 -21 73 -76 73 -103 0 -31 -58 -20
-94 19 -28 29 -40 35 -76 35 -34 0 -48 -6 -76 -34 -28 -28 -34 -42 -34 -76 0
-34 6 -48 34 -76 24 -24 43 -34 64 -34 46 0 81 17 94 45 9 20 18 25 50 25 45
0 49 -15 17 -66 -57 -93 -189 -108 -276 -31 -107 94 -73 263 63 313 48 17 117
10 161 -17z m-813 6 c70 -34 86 -128 31 -185 l-27 -29 41 -58 c22 -32 41 -62
41 -66 0 -4 -18 -7 -40 -7 -37 0 -42 4 -80 60 -31 45 -47 60 -65 60 -22 0 -24
-4 -27 -57 l-3 -58 -37 -3 -38 -3 0 180 0 181 86 0 c56 0 97 -5 118 -15z
m1021 -165 l0 -175 -37 -3 -38 -3 0 181 0 181 38 -3 37 -3 0 -175z m239 158
c-4 -7 -30 -43 -57 -81 l-49 -67 61 -85 c34 -47 61 -88 61 -91 0 -3 -16 -4
-37 -2 -33 3 -42 11 -99 90 l-62 87 39 52 c21 29 39 55 39 59 0 3 9 16 20 28
23 25 98 33 84 10z"/>
<path d="M728 1301 c-29 -26 -33 -35 -33 -81 0 -46 4 -55 33 -81 45 -41 102
-41 143 0 25 25 29 37 29 81 0 44 -4 56 -29 81 -41 41 -98 41 -143 0z"/>
<path d="M332 1223 l3 -108 42 1 c55 1 90 25 104 72 22 76 -33 142 -121 142
l-31 0 3 -107z"/>
<path d="M697 869 c-40 -23 -60 -105 -36 -152 31 -61 116 -78 162 -31 71 71
29 194 -67 194 -22 0 -49 -5 -59 -11z"/>
<path d="M330 835 l0 -45 44 0 c50 0 71 18 62 54 -6 24 -30 36 -78 36 -26 0
-28 -3 -28 -45z"/>
</g>
</svg>
